<?xml version="1.0" encoding="UTF-8" standalone="no"?>
<svg
   xmlns:dc="http://purl.org/dc/elements/1.1/"
   xmlns:cc="http://creativecommons.org/ns#"
   xmlns:rdf="http://www.w3.org/1999/02/22-rdf-syntax-ns#"
   xmlns:svg="http://www.w3.org/2000/svg"
   xmlns="http://www.w3.org/2000/svg"
   xmlns:sodipodi="http://sodipodi.sourceforge.net/DTD/sodipodi-0.dtd"
   xmlns:inkscape="http://www.inkscape.org/namespaces/inkscape"
   version="1.1"
   id="Layer_1"
   x="0px"
   y="0px"
   width="20.02272"
   height="30"
   viewBox="0 0 20.02272 30"
   enable-background="new 0 0 100 100"
   xml:space="preserve"
   inkscape:version="0.91 r13725"
   sodipodi:docname="arrow_left.svg"
   inkscape:export-filename="/Users/dhusea/Documents/topohawk.com/images/arrow_right.png"
   inkscape:export-xdpi="90"
   inkscape:export-ydpi="90"><metadata
     id="metadata3053"><rdf:RDF><cc:Work
         rdf:about=""><dc:format>image/svg+xml</dc:format><dc:type
           rdf:resource="http://purl.org/dc/dcmitype/StillImage" /><dc:title></dc:title></cc:Work></rdf:RDF></metadata><defs
     id="defs3051" /><sodipodi:namedview
     pagecolor="#ffffff"
     bordercolor="#666666"
     borderopacity="1"
     objecttolerance="10"
     gridtolerance="10"
     guidetolerance="10"
     inkscape:pageopacity="0"
     inkscape:pageshadow="2"
     inkscape:window-width="1440"
     inkscape:window-height="783"
     id="namedview3049"
     showgrid="false"
     inkscape:zoom="16"
     inkscape:cx="-3.3633797"
     inkscape:cy="14.70051"
     inkscape:window-x="0"
     inkscape:window-y="0"
     inkscape:window-maximized="1"
     inkscape:current-layer="Layer_1"
     fit-margin-top="1"
     fit-margin-left="1"
     fit-margin-right="1"
     fit-margin-bottom="1" /><path
     d="m 2.5701615,12.377536 0.4686691,-0.399047 0.059756,-0.05389 c 0.1058991,-0.09549 0.218463,-0.189385 0.3336973,-0.281679 L 14.43814,2.2636692 c 0.850379,-0.8215718 2.205973,-0.7975658 3.027545,0.052549 l 0.29342,0.3040884 c 0.82157,0.8506472 0.797564,2.20624 -0.05281,3.0275444 l -7.690769,9.231748 6.848923,9.600918 c 0.791429,0.878923 0.720474,2.232649 -0.158447,3.024079 l -0.313959,0.282748 c -0.87866,0.791423 -2.232386,0.719934 -3.02355,-0.158445 L 3.0340286,17.118914 c -0.043483,-0.03788 -0.089626,-0.07362 -0.128838,-0.114427 L 2.4973386,16.58223 C 1.356474,15.400823 1.3895504,13.518142 2.5701601,12.377544 Z"
     id="path3047"
     inkscape:connector-curvature="0"
     style="clip-rule:evenodd;fill:#000000;fill-opacity:0.78431373;fill-rule:evenodd;stroke:#fafafa;stroke-width:1.33372664;stroke-opacity:0.78431373" /></svg>