<?xml version="1.0" encoding="UTF-8" standalone="no"?>
<svg
   xmlns:dc="http://purl.org/dc/elements/1.1/"
   xmlns:cc="http://creativecommons.org/ns#"
   xmlns:rdf="http://www.w3.org/1999/02/22-rdf-syntax-ns#"
   xmlns:svg="http://www.w3.org/2000/svg"
   xmlns="http://www.w3.org/2000/svg"
   xmlns:sodipodi="http://sodipodi.sourceforge.net/DTD/sodipodi-0.dtd"
   xmlns:inkscape="http://www.inkscape.org/namespaces/inkscape"
   version="1.1"
   id="Layer_1"
   x="0px"
   y="0px"
   width="20.022718"
   height="30"
   viewBox="0 0 20.022718 30"
   enable-background="new 0 0 100 100"
   xml:space="preserve"
   inkscape:version="0.91 r13725"
   sodipodi:docname="arrow_right.svg"><metadata
     id="metadata3053"><rdf:RDF><cc:Work
         rdf:about=""><dc:format>image/svg+xml</dc:format><dc:type
           rdf:resource="http://purl.org/dc/dcmitype/StillImage" /><dc:title></dc:title></cc:Work></rdf:RDF></metadata><defs
     id="defs3051" /><sodipodi:namedview
     pagecolor="#ffffff"
     bordercolor="#666666"
     borderopacity="1"
     objecttolerance="10"
     gridtolerance="10"
     guidetolerance="10"
     inkscape:pageopacity="0"
     inkscape:pageshadow="2"
     inkscape:window-width="1440"
     inkscape:window-height="783"
     id="namedview3049"
     showgrid="false"
     inkscape:zoom="16"
     inkscape:cx="-10.863404"
     inkscape:cy="14.700513"
     inkscape:window-x="0"
     inkscape:window-y="0"
     inkscape:window-maximized="1"
     inkscape:current-layer="Layer_1"
     fit-margin-top="1"
     fit-margin-left="1"
     fit-margin-right="1"
     fit-margin-bottom="1" /><path
     d="m 17.452557,12.377536 -0.468669,-0.399047 -0.05976,-0.05388 c -0.105899,-0.0955 -0.218463,-0.189389 -0.333697,-0.281682 L 5.5845792,2.2636692 C 4.7341989,1.4420974 3.3786044,1.4661033 2.5570328,2.3162182 L 2.2636142,2.6203067 C 1.4420425,3.4709539 1.4660495,4.8265465 2.3164292,5.6478508 l 7.6907668,9.2317472 -6.8489219,9.600918 c -0.7914296,0.878923 -0.7204751,2.232649 0.1584467,3.024078 l 0.313958,0.282749 c 0.8786538,0.791423 2.2323811,0.719934 3.0235438,-0.158445 L 16.98869,17.118914 c 0.04348,-0.03788 0.08963,-0.07362 0.128838,-0.114427 L 17.52538,16.58223 c 1.140864,-1.181408 1.107788,-3.064088 -0.07282,-4.204687 z"
     id="path3047"
     inkscape:connector-curvature="0"
     style="clip-rule:evenodd;fill:#000000;fill-opacity:0.78431373;fill-rule:evenodd;stroke:#fafafa;stroke-width:1.33372664;stroke-opacity:0.78431373" /></svg>