<?xml version="1.0" encoding="UTF-8" standalone="no"?>
<svg
   xmlns:dc="http://purl.org/dc/elements/1.1/"
   xmlns:cc="http://creativecommons.org/ns#"
   xmlns:rdf="http://www.w3.org/1999/02/22-rdf-syntax-ns#"
   xmlns:svg="http://www.w3.org/2000/svg"
   xmlns="http://www.w3.org/2000/svg"
   xmlns:sodipodi="http://sodipodi.sourceforge.net/DTD/sodipodi-0.dtd"
   xmlns:inkscape="http://www.inkscape.org/namespaces/inkscape"
   version="1.1"
   id="Layer_1"
   x="0px"
   y="0px"
   width="50"
   height="50"
   viewBox="5 -10 50 67.5"
   enable-background="new 0 0 100 100"
   xml:space="preserve"
   inkscape:version="0.91 r13725"
   sodipodi:docname="button-cancel.svg"><metadata
     id="metadata13"><rdf:RDF><cc:Work
         rdf:about=""><dc:format>image/svg+xml</dc:format><dc:type
           rdf:resource="http://purl.org/dc/dcmitype/StillImage" /><dc:title /></cc:Work></rdf:RDF></metadata><defs
     id="defs11" /><sodipodi:namedview
     pagecolor="#ffffff"
     bordercolor="#666666"
     borderopacity="1"
     objecttolerance="10"
     gridtolerance="10"
     guidetolerance="10"
     inkscape:pageopacity="0"
     inkscape:pageshadow="2"
     inkscape:window-width="1440"
     inkscape:window-height="803"
     id="namedview9"
     showgrid="false"
     inkscape:zoom="2.36"
     inkscape:cx="-10.381356"
     inkscape:cy="50"
     inkscape:window-x="0"
     inkscape:window-y="0"
     inkscape:window-maximized="1"
     inkscape:current-layer="Layer_1" /><path
     d="M 37.965234,23.749428 57.780488,3.9335177 c 0.760006,-0.7600066 0.760006,-1.9914929 0,-2.7508439 l -5.21316,-5.2131601 c -0.759351,-0.759351 -1.990838,-0.759351 -2.750844,0 L 30.000574,15.785425 10.184665,-4.0304863 c -0.7593514,-0.759351 -1.9914934,-0.759351 -2.7515004,0 L 2.2200047,1.1826738 c -0.7600066,0.759351 -0.7600066,1.9908373 0,2.7508439 L 22.035915,23.749428 2.2206605,43.565994 c -0.7606624,0.760006 -0.7606624,1.991493 0,2.750844 l 5.2125041,5.213159 c 0.760007,0.760007 1.992149,0.760007 2.7515004,0 L 30.000574,31.714743 49.815828,51.529997 c 0.760007,0.760007 1.991492,0.760007 2.750843,0 l 5.213161,-5.213159 c 0.760007,-0.759351 0.760007,-1.990838 0,-2.750844 L 37.965234,23.749428 Z"
     id="path3"
     inkscape:connector-curvature="0"
     style="fill:#ffffff" /></svg>