<?xml version="1.0" encoding="UTF-8" standalone="no"?>
<svg
   xmlns:dc="http://purl.org/dc/elements/1.1/"
   xmlns:cc="http://creativecommons.org/ns#"
   xmlns:rdf="http://www.w3.org/1999/02/22-rdf-syntax-ns#"
   xmlns:svg="http://www.w3.org/2000/svg"
   xmlns="http://www.w3.org/2000/svg"
   xmlns:sodipodi="http://sodipodi.sourceforge.net/DTD/sodipodi-0.dtd"
   xmlns:inkscape="http://www.inkscape.org/namespaces/inkscape"
   version="1.1"
   x="0px"
   y="0px"
   width="50"
   height="50"
   viewBox="0 0 50 50"
   enable-background="new 0 0 100 100"
   xml:space="preserve"
   id="svg2"
   inkscape:version="0.91 r13725"
   sodipodi:docname="button-ok.svg"><metadata
     id="metadata120"><rdf:RDF><cc:Work
         rdf:about=""><dc:format>image/svg+xml</dc:format><dc:type
           rdf:resource="http://purl.org/dc/dcmitype/StillImage" /><dc:title></dc:title></cc:Work></rdf:RDF></metadata><defs
     id="defs118" /><sodipodi:namedview
     pagecolor="#ffffff"
     bordercolor="#666666"
     borderopacity="1"
     objecttolerance="10"
     gridtolerance="10"
     guidetolerance="10"
     inkscape:pageopacity="0"
     inkscape:pageshadow="2"
     inkscape:window-width="1220"
     inkscape:window-height="861"
     id="namedview116"
     showgrid="false"
     inkscape:zoom="2.36"
     inkscape:cx="-47.508475"
     inkscape:cy="50"
     inkscape:window-x="0"
     inkscape:window-y="0"
     inkscape:window-maximized="0"
     inkscape:current-layer="svg2" /><g
     id="Your_Icon"
     transform="matrix(0.49316753,0,0,0.49272933,0.50691988,0.67617231)"
     style="fill:#ffffff"><path
       d="m 96.915,6.877 c -1.656,-1.52 -4.375,-1.536 -6.062,0 L 31.845,61.496 6.993,52.295 C 5.085,51.62 2.907,52.326 1.81,53.931 0.644,55.587 0.745,57.814 2.062,59.386 L 29.33,91.413 C 30.19,92.409 31.424,93 32.722,93 l 0.473,-0.019 c 1.216,-0.133 2.347,-0.758 3.073,-1.703 L 97.387,12.904 c 1.419,-1.823 1.217,-4.473 -0.472,-6.027 z m -64.193,84.636 0,0.019 0,0 0,-0.019 z"
       id="path114"
       inkscape:connector-curvature="0"
       style="fill:#ffffff" /></g></svg>