<?xml version="1.0" encoding="UTF-8" standalone="no"?>
<svg
   xmlns:dc="http://purl.org/dc/elements/1.1/"
   xmlns:cc="http://creativecommons.org/ns#"
   xmlns:rdf="http://www.w3.org/1999/02/22-rdf-syntax-ns#"
   xmlns:svg="http://www.w3.org/2000/svg"
   xmlns="http://www.w3.org/2000/svg"
   xmlns:sodipodi="http://sodipodi.sourceforge.net/DTD/sodipodi-0.dtd"
   xmlns:inkscape="http://www.inkscape.org/namespaces/inkscape"
   version="1.1"
   id="Layer_1"
   x="0px"
   y="0px"
   width="30"
   height="30"
   viewBox="5 -10 30 40.5"
   enable-background="new 0 0 100 100"
   xml:space="preserve"
   inkscape:version="0.91 r13725"
   sodipodi:docname="button-download.svg"><metadata
     id="metadata15"><rdf:RDF><cc:Work
         rdf:about=""><dc:format>image/svg+xml</dc:format><dc:type
           rdf:resource="http://purl.org/dc/dcmitype/StillImage" /><dc:title></dc:title></cc:Work></rdf:RDF></metadata><defs
     id="defs13" /><sodipodi:namedview
     pagecolor="#ffffff"
     bordercolor="#666666"
     borderopacity="1"
     objecttolerance="10"
     gridtolerance="10"
     guidetolerance="10"
     inkscape:pageopacity="0"
     inkscape:pageshadow="2"
     inkscape:window-width="1440"
     inkscape:window-height="783"
     id="namedview11"
     showgrid="false"
     inkscape:zoom="8.84"
     inkscape:cx="13.156987"
     inkscape:cy="3.920428"
     inkscape:window-x="0"
     inkscape:window-y="0"
     inkscape:window-maximized="1"
     inkscape:current-layer="Layer_1" /><path
     d="m 20,29.150001 c 10.438093,0 18.900001,-8.461908 18.900001,-18.9 0,-10.4380926 -8.461908,-18.9000009 -18.900001,-18.9000009 -10.4380922,0 -18.9000007,8.4619083 -18.9000007,18.9000009 0,10.438092 8.4619085,18.9 18.9000007,18.9 z m 0,-34.7760008 c 8.768089,0 15.876001,7.1079123 15.876001,15.8760008 0,8.76771 -7.107912,15.876 -15.876001,15.876 -8.76771,0 -15.8760005,-7.10829 -15.8760005,-15.876 C 4.1239995,1.4819125 11.23229,-5.6259998 20,-5.6259998 Z"
     id="path5"
     inkscape:connector-curvature="0" /><path
     d="m 13.360806,8.6918679 c 2.046841,2.2475031 4.094026,4.4950051 6.140867,6.7425081 0.150903,0.16499 0.327646,0.225128 0.498532,0.214422 0.170885,0.0107 0.348317,-0.04912 0.498531,-0.214422 2.046841,-2.247503 4.094026,-4.495005 6.140867,-6.7425081 0.378981,-0.4153064 0.158827,-1.1001367 -0.498187,-1.1001367 -0.859253,0 -1.717817,0 -2.576725,0 0,-3.3989626 0,-6.79792493 0,-10.1972022 0,-0.3513889 -0.320756,-0.6445278 -0.705249,-0.6445278 -1.905584,0 -3.811857,0 -5.718475,0 -0.384493,0 -0.705249,0.2931389 -0.705249,0.6445278 0,3.39927727 0,6.7982396 0,10.1972022 -0.858908,0 -1.717472,0 -2.576724,0 -0.657015,0 -0.877168,0.6848303 -0.498188,1.1001367 z"
     id="path3"
     inkscape:connector-curvature="0" /><rect
     style="opacity:1;fill:#ff0000;fill-opacity:1;fill-rule:evenodd;stroke:#000000;stroke-width:2.52219296;stroke-linecap:round;stroke-linejoin:round;stroke-miterlimit:4;stroke-dasharray:none;stroke-opacity:1"
     id="rect4147"
     width="16.12343"
     height="0.17780706"
     x="11.938423"
     y="18.666098" /></svg>