<?xml version="1.0" encoding="UTF-8" standalone="no"?>
<svg
   xmlns:dc="http://purl.org/dc/elements/1.1/"
   xmlns:cc="http://creativecommons.org/ns#"
   xmlns:rdf="http://www.w3.org/1999/02/22-rdf-syntax-ns#"
   xmlns:svg="http://www.w3.org/2000/svg"
   xmlns="http://www.w3.org/2000/svg"
   xmlns:sodipodi="http://sodipodi.sourceforge.net/DTD/sodipodi-0.dtd"
   xmlns:inkscape="http://www.inkscape.org/namespaces/inkscape"
   version="1.1"
   x="0px"
   y="0px"
   width="50"
   height="50"
   viewBox="0 0 50 50"
   enable-background="new 0 0 100 100"
   xml:space="preserve"
   id="svg3012"
   inkscape:version="0.48.2 r9819"
   sodipodi:docname="button-list.svg"><metadata
   id="metadata3026"><rdf:RDF><cc:Work
       rdf:about=""><dc:format>image/svg+xml</dc:format><dc:type
         rdf:resource="http://purl.org/dc/dcmitype/StillImage" /><dc:title /></cc:Work></rdf:RDF></metadata><defs
   id="defs3024" /><sodipodi:namedview
   pagecolor="#ffffff"
   bordercolor="#666666"
   borderopacity="1"
   objecttolerance="10"
   gridtolerance="10"
   guidetolerance="10"
   inkscape:pageopacity="0"
   inkscape:pageshadow="2"
   inkscape:window-width="1280"
   inkscape:window-height="709"
   id="namedview3022"
   showgrid="false"
   inkscape:zoom="2.36"
   inkscape:cx="50"
   inkscape:cy="50"
   inkscape:window-x="0"
   inkscape:window-y="0"
   inkscape:window-maximized="1"
   inkscape:current-layer="svg3012" />
<g
   id="Captions"
   transform="translate(0,-50)">
</g>
<g
   id="g3061"
   transform="matrix(0.50549451,0,0,0.50549451,-0.27472529,24.241692)"
   style="fill:#ffffff"><g
     transform="translate(0,-50)"
     id="Your_Icon"
     style="fill:#ffffff">
	<path
   style="fill:#ffffff"
   inkscape:connector-curvature="0"
   id="path3016"
   d="M 89,18 H 11 c -3.59,0 -6.5,2.91 -6.5,6.5 0,3.59 2.91,6.5 6.5,6.5 h 78 c 3.59,0 6.5,-2.91 6.5,-6.5 C 95.5,20.91 92.59,18 89,18 z" />
	<path
   style="fill:#ffffff"
   inkscape:connector-curvature="0"
   id="path3018"
   d="M 89,45 H 11 c -3.59,0 -6.5,2.91 -6.5,6.5 0,3.59 2.91,6.5 6.5,6.5 h 78 c 3.59,0 6.5,-2.91 6.5,-6.5 C 95.5,47.91 92.59,45 89,45 z" />
	<path
   style="fill:#ffffff"
   inkscape:connector-curvature="0"
   id="path3020"
   d="M 95.5,78.5 C 95.5,74.91 92.59,72 89,72 H 11 c -3.59,0 -6.5,2.91 -6.5,6.5 0,3.59 2.91,6.5 6.5,6.5 h 78 c 3.59,0 6.5,-2.91 6.5,-6.5 z" />
</g></g>
</svg>