<?xml version="1.0" encoding="UTF-8" standalone="no"?>
<svg
   xmlns:dc="http://purl.org/dc/elements/1.1/"
   xmlns:cc="http://creativecommons.org/ns#"
   xmlns:rdf="http://www.w3.org/1999/02/22-rdf-syntax-ns#"
   xmlns:svg="http://www.w3.org/2000/svg"
   xmlns="http://www.w3.org/2000/svg"
   xmlns:sodipodi="http://sodipodi.sourceforge.net/DTD/sodipodi-0.dtd"
   xmlns:inkscape="http://www.inkscape.org/namespaces/inkscape"
   version="1.1"
   id="Layer_1"
   x="0px"
   y="0px"
   width="50"
   height="50"
   viewBox="5 -10 50 67.5"
   enable-background="new 0 0 100 100"
   xml:space="preserve"
   inkscape:version="0.91 r13725"
   sodipodi:docname="button-cancel.svg"><metadata
     id="metadata13"><rdf:RDF><cc:Work
         rdf:about=""><dc:format>image/svg+xml</dc:format><dc:type
           rdf:resource="http://purl.org/dc/dcmitype/StillImage" /><dc:title></dc:title></cc:Work></rdf:RDF></metadata><defs
     id="defs11" /><sodipodi:namedview
     pagecolor="#ffffff"
     bordercolor="#666666"
     borderopacity="1"
     objecttolerance="10"
     gridtolerance="10"
     guidetolerance="10"
     inkscape:pageopacity="0"
     inkscape:pageshadow="2"
     inkscape:window-width="1440"
     inkscape:window-height="803"
     id="namedview9"
     showgrid="false"
     inkscape:zoom="2.36"
     inkscape:cx="51.90678"
     inkscape:cy="50"
     inkscape:window-x="0"
     inkscape:window-y="0"
     inkscape:window-maximized="1"
     inkscape:current-layer="Layer_1" /><path
     d="M 38.723483,23.749642 60.425716,2.0466906 c 0.832381,-0.832381 0.832381,-2.18113998 0,-3.01280298 L 54.716114,-6.6757144 c -0.831663,-0.831663 -2.180422,-0.831663 -3.012803,0 L 30.00036,15.027238 8.2974087,-6.6757144 c -0.8316628,-0.831663 -2.1811399,-0.831663 -3.0135214,0 l -5.70960184,5.70960202 c -0.83238096,0.831663 -0.83238096,2.18042198 0,3.01280298 L 21.277237,23.749642 -0.42499634,45.453312 c -0.83309916,0.832381 -0.83309916,2.18114 0,3.012803 l 5.70888364,5.709601 c 0.8323815,0.832382 2.1818586,0.832382 3.0135214,0 L 30.00036,32.473483 51.702593,54.175716 c 0.832381,0.832382 2.181139,0.832382 3.012802,0 l 5.709603,-5.709601 c 0.832381,-0.831663 0.832381,-2.180422 0,-3.012803 L 38.723483,23.749642 Z"
     id="path3"
     inkscape:connector-curvature="0"
     style="fill:#ffffff" /></svg>