<?xml version="1.0" encoding="UTF-8" standalone="no"?>
<svg
   xmlns:dc="http://purl.org/dc/elements/1.1/"
   xmlns:cc="http://creativecommons.org/ns#"
   xmlns:rdf="http://www.w3.org/1999/02/22-rdf-syntax-ns#"
   xmlns:svg="http://www.w3.org/2000/svg"
   xmlns="http://www.w3.org/2000/svg"
   xmlns:sodipodi="http://sodipodi.sourceforge.net/DTD/sodipodi-0.dtd"
   xmlns:inkscape="http://www.inkscape.org/namespaces/inkscape"
   version="1.1"
   id="Layer_1"
   x="0px"
   y="0px"
   width="50"
   height="50"
   viewBox="2.125 73.247 50 50.000001"
   enable-background="new 2.125 73.247 100 84.504"
   xml:space="preserve"
   inkscape:version="0.48.2 r9819"
   sodipodi:docname="button-photos-selected.svgz"><metadata
   id="metadata3048"><rdf:RDF><cc:Work
       rdf:about=""><dc:format>image/svg+xml</dc:format><dc:type
         rdf:resource="http://purl.org/dc/dcmitype/StillImage" /><dc:title></dc:title></cc:Work></rdf:RDF></metadata><defs
   id="defs3046" /><sodipodi:namedview
   pagecolor="#ffffff"
   bordercolor="#666666"
   borderopacity="1"
   objecttolerance="10"
   gridtolerance="10"
   guidetolerance="10"
   inkscape:pageopacity="0"
   inkscape:pageshadow="2"
   inkscape:window-width="1280"
   inkscape:window-height="709"
   id="namedview3044"
   showgrid="false"
   inkscape:zoom="2.7927673"
   inkscape:cx="-13.377998"
   inkscape:cy="25.50762"
   inkscape:window-x="0"
   inkscape:window-y="0"
   inkscape:window-maximized="1"
   inkscape:current-layer="Layer_1" />

<g
   id="g3067"
   transform="matrix(0.46000001,0,0,0.46000001,3.1474995,60.98938)"
   style="fill:#00bbe0;fill-opacity:1"><path
     inkscape:connector-curvature="0"
     id="path3040"
     d="m 85.297,61.383001 -3.874,-22.64 -79.298,13.923 11.622,66.222999 7.87,-1.332 v 5.69 h 80.508 V 61.383001 H 85.297 z m -63.68,49.514999 -2.542,0.484 -9.443,-53.389999 66.465,-11.744 2.664,15.134 H 21.617 V 110.898 z m 73.971,5.811 H 28.154 V 67.920001 H 95.588 V 116.709 z"
     style="fill:#00bbe0;fill-opacity:1" /><path
     inkscape:connector-curvature="0"
     id="path3042"
     d="M 32.512,72.278001 V 108.476 l 13.681,-9.078999 8.474,5.325999 20.581,-22.638999 2.664,1.089 13.317,15.376 v -26.271 H 32.512 z m 13.075,15.617 c -3.147,0 -5.811,-2.663 -5.811,-5.811 0,-3.148 2.664,-5.812 5.811,-5.812 3.148,0 5.811,2.663 5.811,5.812 0,3.148 -2.663,5.811 -5.811,5.811 z"
     style="fill:#00bbe0;fill-opacity:1" /></g>
</svg>