<?xml version="1.0" encoding="UTF-8" standalone="no"?>
<svg
   xmlns:dc="http://purl.org/dc/elements/1.1/"
   xmlns:cc="http://creativecommons.org/ns#"
   xmlns:rdf="http://www.w3.org/1999/02/22-rdf-syntax-ns#"
   xmlns:svg="http://www.w3.org/2000/svg"
   xmlns="http://www.w3.org/2000/svg"
   xmlns:sodipodi="http://sodipodi.sourceforge.net/DTD/sodipodi-0.dtd"
   xmlns:inkscape="http://www.inkscape.org/namespaces/inkscape"
   version="1.1"
   x="0px"
   y="0px"
   width="25"
   height="24"
   viewBox="0 0 25 24"
   enable-background="new 0 0 100 100"
   xml:space="preserve"
   id="svg2"
   inkscape:version="0.48.2 r9819"
   sodipodi:docname="filter.svg"
   inkscape:export-filename="/Users/Alec/Documents/Scarlet Shark/topohalk/images/filter-selected.png"
   inkscape:export-xdpi="90"
   inkscape:export-ydpi="90"><metadata
   id="metadata12"><rdf:RDF><cc:Work
       rdf:about=""><dc:format>image/svg+xml</dc:format><dc:type
         rdf:resource="http://purl.org/dc/dcmitype/StillImage" /><dc:title /></cc:Work></rdf:RDF></metadata><defs
   id="defs10" /><sodipodi:namedview
   pagecolor="#ffffff"
   bordercolor="#666666"
   borderopacity="1"
   objecttolerance="10"
   gridtolerance="10"
   guidetolerance="10"
   inkscape:pageopacity="0"
   inkscape:pageshadow="2"
   inkscape:window-width="1280"
   inkscape:window-height="709"
   id="namedview8"
   showgrid="false"
   inkscape:zoom="1"
   inkscape:cx="-20.30508"
   inkscape:cy="-190"
   inkscape:window-x="0"
   inkscape:window-y="0"
   inkscape:window-maximized="1"
   inkscape:current-layer="svg2" />
<g
   id="Captions"
   transform="translate(0,-76)">
</g>
<g
   id="Your_Icon"
   transform="matrix(0.32,0,0,0.32592677,-3,-4.796338)"
   style="fill:#444444;fill-opacity:1">
	<path
   d="m 87.5,27.292 c 0,-6.944 -16.789,-12.576 -37.501,-12.576 -20.71,0 -37.499,5.632 -37.499,12.576 0,0.148 0.018,0.294 0.033,0.441 -0.006,0.035 -0.033,0.046 -0.033,0.09 0,0.665 0,1.77 0,2.454 0,0.686 0.324,1.571 0.72,1.968 0.396,0.396 1.441,1.445 2.325,2.331 l 27.111,27.188 c 0,8.948 0,19.865 0,20.237 0,0.634 1.196,3.283 7.345,3.283 6.147,0 7.343,-2.489 7.343,-3.283 0,-0.467 0,-11.375 0,-20.294 L 84.743,34.283 c 0.883,-0.886 1.865,-1.868 2.183,-2.184 0.314,-0.317 0.574,-1.043 0.574,-1.615 0,-0.572 0,-1.678 0,-2.455 0,-0.069 -0.034,-0.095 -0.046,-0.149 0.027,-0.195 0.046,-0.391 0.046,-0.588 z m -37.501,-6.82 c 18.605,0 29.207,4.472 31.473,6.82 -2.266,2.349 -12.867,6.82 -31.473,6.82 -18.604,0 -29.205,-4.472 -31.47,-6.82 2.265,-2.349 12.866,-6.82 31.47,-6.82 z"
   id="path6"
   inkscape:connector-curvature="0"
   style="fill:#444444;fill-opacity:1" />
</g>
</svg>