<?xml version="1.0" encoding="UTF-8" standalone="no"?>
<svg
   xmlns:dc="http://purl.org/dc/elements/1.1/"
   xmlns:cc="http://creativecommons.org/ns#"
   xmlns:rdf="http://www.w3.org/1999/02/22-rdf-syntax-ns#"
   xmlns:svg="http://www.w3.org/2000/svg"
   xmlns="http://www.w3.org/2000/svg"
   xmlns:sodipodi="http://sodipodi.sourceforge.net/DTD/sodipodi-0.dtd"
   xmlns:inkscape="http://www.inkscape.org/namespaces/inkscape"
   version="1.1"
   id="Layer_1"
   x="0px"
   y="0px"
   width="16"
   height="16"
   viewBox="0 0 48 48"
   enable-background="new 0 0 300 300"
   xml:space="preserve"
   inkscape:version="0.48.5 r10040"
   sodipodi:docname="loc-ort.svg"><metadata
     id="metadata3053"><rdf:RDF><cc:Work
         rdf:about=""><dc:format>image/svg+xml</dc:format><dc:type
           rdf:resource="http://purl.org/dc/dcmitype/StillImage" /></cc:Work></rdf:RDF></metadata><defs
     id="defs3051" /><sodipodi:namedview
     pagecolor="#ffffff"
     bordercolor="#666666"
     borderopacity="1"
     objecttolerance="10"
     gridtolerance="10"
     guidetolerance="10"
     inkscape:pageopacity="0"
     inkscape:pageshadow="2"
     inkscape:window-width="1440"
     inkscape:window-height="779"
     id="namedview3049"
     showgrid="false"
     inkscape:zoom="27.84"
     inkscape:cx="13.981269"
     inkscape:cy="8.3333333"
     inkscape:window-x="0"
     inkscape:window-y="0"
     inkscape:window-maximized="1"
     inkscape:current-layer="Layer_1" /><g
     id="g3855"
     transform="matrix(0.97787897,0,0,0.98354915,0.53400752,0.42220409)"><path
       inkscape:connector-curvature="0"
       id="path3831"
       d="M 7.3067782,47.90554 C 6.7181001,47.741723 6.3245899,47.407846 6.1078305,46.888279 5.9569873,46.526711 5.9621254,46.327976 6.137644,45.73462 6.4223883,44.772047 22.112337,1.2685649 22.311181,0.8903003 c 0.08595,-0.16351258 0.388283,-0.43508488 0.671848,-0.60349631 0.914314,-0.54302313 2.164728,-0.28908029 2.675407,0.5433379 0.386542,0.63007251 16.316771,44.95576711 16.339807,45.46534411 0.03077,0.677233 -0.343302,1.205605 -1.060113,1.498055 -0.988083,0.403119 -1.402844,0.27167 -2.825357,-0.895437 -0.67662,-0.555139 -4.093268,-3.458985 -7.592553,-6.452994 -3.499283,-2.994011 -6.426667,-5.443655 -6.5053,-5.443655 -0.07864,0 -3.417938,2.805652 -7.420682,6.234783 -4.002741,3.429129 -7.4216035,6.318324 -7.5974686,6.42043 -0.4768961,0.276876 -1.2043801,0.384008 -1.6899939,0.248872 l 0,0 z M 23.398273,31.03246 c 1.061309,-0.370436 1.180981,-0.290593 7.073059,4.719042 2.966976,2.522621 5.411892,4.571512 5.433143,4.553092 0.06322,-0.0548 -11.795077,-32.9216867 -11.878839,-32.9238271 -0.0604,-0.00155 -11.585973,31.7948071 -11.883713,32.7843821 -0.04118,0.136868 2.362493,-1.822845 5.341495,-4.354922 3.425867,-2.9119 5.599562,-4.667718 5.914855,-4.777767 l 0,0 z"
       style="fill:#ffffff;fill-opacity:1;stroke:none" /><path
       inkscape:connector-curvature="0"
       id="path3833"
       d="m 30.985395,36.68623 c -4.952501,-4.270036 -5.661766,-4.832751 -6.270423,-4.974808 -1.362667,-0.318037 -1.373733,-0.310749 -7.485172,4.930055 -3.058534,2.622816 -5.586869,4.746311 -5.61852,4.718877 -0.03165,-0.02744 2.746562,-7.829386 6.173805,-17.337672 3.427246,-9.508286 6.276182,-17.2460428 6.330972,-17.195014 0.11583,0.1078805 12.551317,34.588391 12.492713,34.639187 -0.02158,0.01871 -2.552099,-2.132577 -5.623375,-4.780625 l 0,0 z"
       style="fill:#2e83ff;fill-opacity:1;stroke:none" /><path
       transform="scale(3,3)"
       inkscape:connector-curvature="0"
       id="path3845"
       d="M 2.3002348,16.074296 C 2.0343181,15.95435 1.8632137,15.717541 1.8632137,15.469459 c 0,-0.154439 1.221593,-3.595476 4.0694453,-11.4629935 C 7.2921698,0.25066117 7.2985171,0.23430539 7.4529061,0.08919736 7.773191,-0.21183395 8.2544949,-0.22145866 8.5509403,0.06723977 8.6728469,0.18596038 8.7360513,0.3340218 9.1898512,1.5639368 10.184903,4.2607845 13.388904,13.183359 13.936434,14.782328 c 0.243301,0.71052 0.250161,0.790041 0.08854,1.026349 -0.193567,0.283015 -0.648119,0.401753 -0.950766,0.24836 C 12.851441,15.944132 12.846649,15.940221 10.738856,14.150553 9.7003207,13.268762 8.6608555,12.391244 8.4289331,12.200514 L 8.0072567,11.853732 7.6591335,12.138679 C 7.4676658,12.2954 6.7525178,12.89776 6.0699158,13.477258 c -2.2990016,1.951747 -2.9857156,2.5261 -3.0806669,2.576607 -0.1439851,0.07659 -0.538578,0.08829 -0.6890141,0.02043 z m 0.5038627,-0.273989 c 0.1047123,-0.0365 1.1714863,-0.922335 3.6268844,-3.011706 0.8975018,-0.763711 1.5421495,-1.292911 1.5749659,-1.292911 0.045527,0 0.4119138,0.305275 2.9340872,2.444701 2.070607,1.756385 2.078235,1.762671 2.239572,1.845751 0.257046,0.132365 0.6508,-0.04793 0.6508,-0.297996 0,-0.06021 -0.13073,-0.486104 -0.290511,-0.946437 C 12.780389,12.353551 9.660955,3.6800661 8.8482844,1.4968358 L 8.3954528,0.28030945 8.2483469,0.21350108 C 8.057043,0.12662037 7.9610304,0.12833349 7.7673699,0.22208294 7.6554949,0.2762407 7.5931367,0.33552148 7.5569568,0.42211236 7.2931838,1.05341 2.2000868,15.224957 2.1705142,15.409893 c -0.049313,0.308388 0.2824491,0.51282 0.6335833,0.390414 l 0,0 z"
       style="fill:#444444;fill-opacity:1;stroke:none" /></g></svg>