<?xml version="1.0" encoding="UTF-8" standalone="no"?>
<!-- Created with Inkscape (http://www.inkscape.org/) -->

<svg
   xmlns:dc="http://purl.org/dc/elements/1.1/"
   xmlns:cc="http://creativecommons.org/ns#"
   xmlns:rdf="http://www.w3.org/1999/02/22-rdf-syntax-ns#"
   xmlns:svg="http://www.w3.org/2000/svg"
   xmlns="http://www.w3.org/2000/svg"
   xmlns:sodipodi="http://sodipodi.sourceforge.net/DTD/sodipodi-0.dtd"
   xmlns:inkscape="http://www.inkscape.org/namespaces/inkscape"
   width="128"
   height="128"
   id="svg2"
   version="1.1"
   inkscape:version="0.48.2 r9819"
   sodipodi:docname="logo-test.svg"
   inkscape:export-filename="/Users/dhusea/Documents/Github/Topo-Hawk-Mobile/images/icon.png"
   inkscape:export-xdpi="115.2"
   inkscape:export-ydpi="115.2">
  <defs
     id="defs4" />
  <sodipodi:namedview
     id="base"
     pagecolor="#ffffff"
     bordercolor="#666666"
     borderopacity="1.0"
     inkscape:pageopacity="0.0"
     inkscape:pageshadow="2"
     inkscape:zoom="2.455"
     inkscape:cx="125.1166"
     inkscape:cy="51.712058"
     inkscape:document-units="px"
     inkscape:current-layer="layer1"
     showgrid="false"
     inkscape:window-width="1280"
     inkscape:window-height="709"
     inkscape:window-x="0"
     inkscape:window-y="0"
     inkscape:window-maximized="1" />
  <metadata
     id="metadata7">
    <rdf:RDF>
      <cc:Work
         rdf:about="">
        <dc:format>image/svg+xml</dc:format>
        <dc:type
           rdf:resource="http://purl.org/dc/dcmitype/StillImage" />
        <dc:title></dc:title>
      </cc:Work>
    </rdf:RDF>
  </metadata>
  <g
     inkscape:label="Layer 1"
     inkscape:groupmode="layer"
     id="layer1"
     transform="translate(0,-924.36218)">
    <text
       xml:space="preserve"
       style="font-size:64px;font-style:normal;font-weight:normal;line-height:125%;letter-spacing:0px;word-spacing:0px;fill:#000000;fill-opacity:1;stroke:none;font-family:Sans"
       x="361.63461"
       y="597.79352"
       id="text3005"
       sodipodi:linespacing="125%"><tspan
         sodipodi:role="line"
         id="tspan3007"
         x="361.63461"
         y="597.79352" /></text>
    <g
       id="g3081">
      <rect
         transform="translate(0,924.36218)"
         y="15.169043"
         x="7.7393074"
         height="103.05499"
         width="114.05296"
         id="rect3079"
         style="fill:#ffffff;fill-opacity:1;stroke:none" />
      <path
         sodipodi:nodetypes="ccccccccccccccccccccccccccccccccccccccccccccccccccc"
         inkscape:connector-curvature="0"
         id="path3056"
         d="m 4.045627,924.36217 c -2.1172612,0 -3.83364031,1.71914 -3.83364031,3.83978 -0.44444048,119.99095 -0.0617723,0.3325 0,120.31355 0,2.1206 1.71637911,3.8398 3.83364031,3.8398 120.161163,0.068 0.09914,-0.3931 120.120733,0 2.11726,0 3.83364,-1.7192 3.83364,-3.8398 -0.003,-120.29177 -0.008,0.028 0,-120.31355 0,-2.12064 -1.71638,-3.83978 -3.83364,-3.83978 -120.507518,0.41742 0.17062,0.7487 -120.120733,0 z m 10.262975,21.67882 26.316344,0 26.316343,0 0,5.87968 0,5.91967 -9.224696,0 -9.184765,0 0,24.15869 0,24.11877 -7.906882,0 -7.906884,0 0,-24.11877 0,-24.15869 -9.224698,0 -9.184762,0 0,-5.91967 z m 98.276968,25.79859 0,30.03842 0,30.0384 -7.94682,0 -7.906881,0 0,-13.0793 0,-13.0793 -11.021715,0 -11.06165,0 0,13.0793 0,13.0793 -7.906884,0 -7.906882,0 0.07987,-29.9185 0.119808,-29.95833 7.707214,0 7.747149,0 0.07987,10.9594 0.119808,10.95951 11.021716,0 11.021715,0 0.07987,-10.95951 0.119796,-10.9594 7.827016,-0.11993 z"
         style="fill:#000000;fill-opacity:1;stroke:none" />
    </g>
  </g>
</svg>
