<?xml version="1.0" encoding="UTF-8" standalone="no"?>
<svg
   xmlns:dc="http://purl.org/dc/elements/1.1/"
   xmlns:cc="http://creativecommons.org/ns#"
   xmlns:rdf="http://www.w3.org/1999/02/22-rdf-syntax-ns#"
   xmlns:svg="http://www.w3.org/2000/svg"
   xmlns="http://www.w3.org/2000/svg"
   xmlns:sodipodi="http://sodipodi.sourceforge.net/DTD/sodipodi-0.dtd"
   xmlns:inkscape="http://www.inkscape.org/namespaces/inkscape"
   version="1.1"
   x="0px"
   y="0px"
   viewBox="0 0 100 100"
   enable-background="new 0 0 100 100"
   xml:space="preserve"
   id="svg2"
   inkscape:version="0.91 r13725"
   sodipodi:docname="no-connection.svg"><metadata
     id="metadata12"><rdf:RDF><cc:Work
         rdf:about=""><dc:format>image/svg+xml</dc:format><dc:type
           rdf:resource="http://purl.org/dc/dcmitype/StillImage" /><dc:title></dc:title></cc:Work></rdf:RDF></metadata><defs
     id="defs10" /><sodipodi:namedview
     pagecolor="#ffffff"
     bordercolor="#666666"
     borderopacity="1"
     objecttolerance="10"
     gridtolerance="10"
     guidetolerance="10"
     inkscape:pageopacity="0"
     inkscape:pageshadow="2"
     inkscape:window-width="1429"
     inkscape:window-height="808"
     id="namedview8"
     showgrid="false"
     inkscape:zoom="3.337544"
     inkscape:cx="15.985774"
     inkscape:cy="54.008167"
     inkscape:window-x="0"
     inkscape:window-y="0"
     inkscape:window-maximized="0"
     inkscape:current-layer="svg2" /><g
     id="g4156"
     transform="matrix(1,0,0,1.0000173,0,0.29876113)"
     style="fill:#212121;fill-opacity:1"><rect
       transform="matrix(0.50597013,-0.862551,0.86428624,0.50300029,0,0)"
       ry="3.0581172"
       y="64.719139"
       x="-63.983791"
       height="6.1162343"
       width="91.776337"
       id="rect4148"
       style="opacity:1;fill:#212121;fill-opacity:1;fill-rule:evenodd;stroke:none;stroke-width:2;stroke-linecap:butt;stroke-linejoin:miter;stroke-miterlimit:4;stroke-dasharray:none;stroke-dashoffset:12;stroke-opacity:1" /><path
       sodipodi:nodetypes="cccccccccccscccccccccccscccczccscccccccczzccccccccc"
       style="clip-rule:evenodd;fill-rule:evenodd;fill:#212121;fill-opacity:1"
       inkscape:connector-curvature="0"
       id="path4"
       d="m 44.627988,26.824184 c -3.567355,-2.11709 -7.508384,-2.547853 -11.114601,-1.714118 -1.78866,0.413889 -3.48963,1.137452 -5.015222,2.118082 -1.535557,0.987579 -2.900718,2.235203 -4.009786,3.693246 -2.094575,2.751324 -3.280372,6.239113 -2.982428,10.116971 -7.195494,0.291807 -12.0911398,4.242121 -14.5972562,9.428148 -1.1668637,2.41386 -1.8026101,5.100669 -1.896278,7.804351 -0.094664,2.689787 0.3517531,5.406372 1.3462279,7.900627 2.3715931,5.949292 7.7844063,10.589421 16.3291173,10.589421 l 0,-0.0089 1.622249,0 c 0,0 3.821037,-3.954284 2.292872,-3.954284 l -3.915121,0 0,-0.0079 c -6.647437,0 -10.829612,-3.538409 -12.639197,-8.076307 -0.7882063,-1.978134 -1.1419524,-4.152792 -1.0652244,-6.318516 0.074735,-2.152822 0.5799442,-4.28877 1.5076564,-6.207352 2.124469,-4.39398 6.548786,-7.622716 13.20519,-7.155229 l 0,0 c 0.188332,0.0129 0.382644,-0.002 0.575958,-0.04566 1.070207,-0.244165 1.739833,-1.306184 1.494702,-2.373166 -0.843012,-3.611857 0.03986,-6.860444 1.898271,-9.303088 0.825075,-1.083855 1.841472,-2.012873 2.983424,-2.747354 1.15092,-0.739443 2.424406,-1.283355 3.754691,-1.591043 3.03823,-0.702719 6.405294,-0.184613 9.320959,2.017836 l 0.003,-0.003 c 0.823082,0.620338 1.999911,0.510166 2.690463,-0.275927 2.252017,-2.572666 4.906607,-4.354278 7.724618,-5.423245 0,0 5.030667,-5.235158 2.812032,-4.852533 -2.218636,0.382625 -8.739022,2.830727 -12.326306,6.388987 z m -1.782681,49.928788 c 0,0 0.764707,-3.954284 2.292872,-3.954284 l 31.367808,0 0,-0.0079 c 4.873723,0 8.6324,-2.021806 11.089689,-5.001415 1.599331,-1.939425 2.664555,-4.293733 3.140866,-6.771115 0.476312,-2.475398 0.359725,-5.063945 -0.402573,-7.47185 -1.173839,-3.704163 -3.908146,-6.996422 -8.403212,-8.789944 -0.786213,-0.313643 -1.259535,-1.071944 -1.247578,-1.867962 -0.175378,-5.891724 -2.730321,-10.662869 -6.485012,-13.922374 -0.80116,-0.695771 -2.111016,-1.601962 -2.562915,-1.880866 -0.451898,-0.278904 1.428437,-3.774137 1.98895,-3.431214 0.560513,0.342923 2.18924,1.46499 3.189693,2.333464 4.283815,3.720044 7.274215,9.054952 7.776434,15.606716 5.023194,2.370189 8.138152,6.33539 9.543172,10.773042 0.960595,3.036183 1.109068,6.289733 0.512184,9.395394 -0.597881,3.103676 -1.947098,6.071374 -3.982881,8.539823 -3.174747,3.848082 -7.978717,6.459458 -14.157814,6.459458 l 0,-0.0079 -33.659683,0 z" /></g></svg>