<?xml version="1.0" encoding="UTF-8" standalone="no"?>
<svg
   xmlns:dc="http://purl.org/dc/elements/1.1/"
   xmlns:cc="http://creativecommons.org/ns#"
   xmlns:rdf="http://www.w3.org/1999/02/22-rdf-syntax-ns#"
   xmlns:svg="http://www.w3.org/2000/svg"
   xmlns="http://www.w3.org/2000/svg"
   xmlns:sodipodi="http://sodipodi.sourceforge.net/DTD/sodipodi-0.dtd"
   xmlns:inkscape="http://www.inkscape.org/namespaces/inkscape"
   version="1.1"
   id="Layer_1"
   x="0px"
   y="0px"
   width="65"
   height="16"
   viewBox="0 0 65 16"
   enable-background="new 0 0 32 32"
   xml:space="preserve"
   inkscape:version="0.48.2 r9819"
   sodipodi:docname="rating-zero.svg"><metadata
   id="metadata8"><rdf:RDF><cc:Work
       rdf:about=""><dc:format>image/svg+xml</dc:format><dc:type
         rdf:resource="http://purl.org/dc/dcmitype/StillImage" /><dc:title></dc:title></cc:Work></rdf:RDF></metadata><defs
   id="defs6" /><sodipodi:namedview
   pagecolor="#ffffff"
   bordercolor="#666666"
   borderopacity="1"
   objecttolerance="10"
   gridtolerance="10"
   guidetolerance="10"
   inkscape:pageopacity="0"
   inkscape:pageshadow="2"
   inkscape:window-width="1280"
   inkscape:window-height="709"
   id="namedview4"
   showgrid="false"
   inkscape:zoom="10.038391"
   inkscape:cx="31.984702"
   inkscape:cy="11.984702"
   inkscape:window-x="0"
   inkscape:window-y="0"
   inkscape:window-maximized="1"
   inkscape:current-layer="Layer_1" />

<path
   style="fill:#ffd700;fill-opacity:1;stroke:#000000;stroke-width:1.00005984000000003;stroke-linecap:round;stroke-linejoin:round;stroke-miterlimit:4;stroke-opacity:1;stroke-dasharray:none"
   d="m 4.9035321,12.152264 c 0.4325744,-1.291236 0.7864988,-2.4340133 0.7864988,-2.5395029 0,-0.105489 -0.9427503,-0.8621585 -2.0950005,-1.6814863 L 1.5000299,6.4415881 4.1816116,6.361802 6.8631934,6.2820163 7.6016033,3.9331053 C 8.0077287,2.6412042 8.3772595,1.5469479 8.4227828,1.5014246 8.4683065,1.4559009 8.8533359,2.5308631 9.2784049,3.8902287 l 0.7728521,2.4715733 2.713432,0 2.713432,0 -2.141431,1.5238503 c -1.177785,0.8381175 -2.15983,1.5754922 -2.182319,1.6386103 -0.02249,0.063117 0.317768,1.1853654 0.75613,2.4938784 0.438362,1.308517 0.774534,2.401611 0.747045,2.429098 -0.02751,0.02751 -0.9063,-0.580764 -1.95292,-1.35167 C 9.6580075,12.324664 8.7093787,11.637302 8.5965613,11.568099 8.4627011,11.485989 7.68069,11.973416 6.3455992,12.971123 5.2203873,13.81199 4.2586458,14.49997 4.2083964,14.49997 c -0.050251,0 0.2625613,-1.056467 0.6951357,-2.347706 z"
   id="path3759"
   inkscape:connector-curvature="0" /><path
   inkscape:connector-curvature="0"
   id="path3780"
   d="m 20.903532,12.152264 c 0.432575,-1.291236 0.786499,-2.4340132 0.786499,-2.5395028 0,-0.105489 -0.94275,-0.8621585 -2.095001,-1.6814863 l -2.095,-1.4896867 2.681582,-0.079786 2.681581,-0.079786 0.73841,-2.3489112 c 0.406126,-1.291901 0.775657,-2.386157 0.82118,-2.43168 0.04552,-0.04552 0.430553,1.029438 0.855622,2.388804 l 0.772852,2.4715729 2.713432,0 2.713432,0 -2.141431,1.5238503 c -1.177785,0.8381175 -2.15983,1.5754922 -2.182319,1.6386103 -0.02249,0.063117 0.317768,1.1853655 0.75613,2.4938785 0.438362,1.308517 0.774534,2.401611 0.747045,2.429098 -0.02751,0.02751 -0.9063,-0.580764 -1.95292,-1.35167 -1.046618,-0.770905 -1.995247,-1.458267 -2.108065,-1.52747 -0.13386,-0.08211 -0.915871,0.405317 -2.250962,1.403024 -1.125212,0.840867 -2.086953,1.528847 -2.137203,1.528847 -0.05025,0 0.262562,-1.056467 0.695136,-2.347706 z"
   style="fill:#ffffff;fill-opacity:1;stroke:#000000;stroke-width:1.00005984;stroke-linecap:round;stroke-linejoin:round;stroke-miterlimit:4;stroke-opacity:1;stroke-dasharray:none" /><path
   style="fill:#ffffff;fill-opacity:1;stroke:#000000;stroke-width:1.00005984;stroke-linecap:round;stroke-linejoin:round;stroke-miterlimit:4;stroke-opacity:1;stroke-dasharray:none"
   d="m 36.903532,12.152264 c 0.432575,-1.291236 0.786499,-2.4340132 0.786499,-2.5395028 0,-0.105489 -0.94275,-0.8621585 -2.095001,-1.6814863 l -2.095,-1.4896867 2.681582,-0.079786 2.681581,-0.079786 0.73841,-2.3489112 c 0.406126,-1.291901 0.775657,-2.386157 0.82118,-2.43168 0.04552,-0.04552 0.430553,1.029438 0.855622,2.388804 l 0.772852,2.4715729 2.713432,0 2.713432,0 -2.141431,1.5238503 c -1.177785,0.8381175 -2.15983,1.5754922 -2.182319,1.6386103 -0.02249,0.063117 0.317768,1.1853655 0.75613,2.4938785 0.438362,1.308517 0.774534,2.401611 0.747045,2.429098 -0.02751,0.02751 -0.9063,-0.580764 -1.95292,-1.35167 -1.046618,-0.770905 -1.995247,-1.458267 -2.108065,-1.52747 -0.13386,-0.08211 -0.915871,0.405317 -2.250962,1.403024 -1.125212,0.840867 -2.086953,1.528847 -2.137203,1.528847 -0.05025,0 0.262562,-1.056467 0.695136,-2.347706 z"
   id="path3782"
   inkscape:connector-curvature="0" /><path
   inkscape:connector-curvature="0"
   id="path3784"
   d="m 52.903532,12.152264 c 0.432575,-1.291236 0.786499,-2.4340132 0.786499,-2.5395028 0,-0.105489 -0.94275,-0.8621585 -2.095001,-1.6814863 l -2.095,-1.4896867 2.681582,-0.079786 2.681581,-0.079786 0.73841,-2.3489112 c 0.406126,-1.291901 0.775657,-2.386157 0.82118,-2.43168 0.04552,-0.04552 0.430553,1.029438 0.855622,2.388804 l 0.772852,2.4715729 2.713432,0 2.713432,0 -2.141431,1.5238503 c -1.177785,0.8381175 -2.15983,1.5754922 -2.182319,1.6386103 -0.02249,0.063117 0.317768,1.1853655 0.75613,2.4938785 0.438362,1.308517 0.774534,2.401611 0.747045,2.429098 -0.02751,0.02751 -0.9063,-0.580764 -1.95292,-1.35167 -1.046618,-0.770905 -1.995247,-1.458267 -2.108065,-1.52747 -0.13386,-0.08211 -0.915871,0.405317 -2.250962,1.403024 -1.125212,0.840867 -2.086953,1.528847 -2.137203,1.528847 -0.05025,0 0.262562,-1.056467 0.695136,-2.347706 z"
   style="fill:#ffffff;fill-opacity:1;stroke:#000000;stroke-width:1.00005984;stroke-linecap:round;stroke-linejoin:round;stroke-miterlimit:4;stroke-opacity:1;stroke-dasharray:none" /></svg>