<?xml version="1.0" encoding="UTF-8" standalone="no"?>
<svg
   xmlns:dc="http://purl.org/dc/elements/1.1/"
   xmlns:cc="http://creativecommons.org/ns#"
   xmlns:rdf="http://www.w3.org/1999/02/22-rdf-syntax-ns#"
   xmlns:svg="http://www.w3.org/2000/svg"
   xmlns="http://www.w3.org/2000/svg"
   xmlns:sodipodi="http://sodipodi.sourceforge.net/DTD/sodipodi-0.dtd"
   xmlns:inkscape="http://www.inkscape.org/namespaces/inkscape"
   version="1.1"
   x="0px"
   y="0px"
   viewBox="0 0 12 12"
   enable-background="new 0 0 493 500"
   xml:space="preserve"
   id="svg2"
   inkscape:version="0.91 r13725"
   sodipodi:docname="noun_24732_cc.svg"
   width="12"
   height="12"><metadata
     id="metadata18"><rdf:RDF><cc:Work
         rdf:about=""><dc:format>image/svg+xml</dc:format><dc:type
           rdf:resource="http://purl.org/dc/dcmitype/StillImage" /><dc:title></dc:title></cc:Work></rdf:RDF></metadata><defs
     id="defs16" /><sodipodi:namedview
     pagecolor="#ffffff"
     bordercolor="#666666"
     borderopacity="1"
     objecttolerance="10"
     gridtolerance="10"
     guidetolerance="10"
     inkscape:pageopacity="0"
     inkscape:pageshadow="2"
     inkscape:window-width="1440"
     inkscape:window-height="855"
     id="namedview14"
     showgrid="false"
     inkscape:zoom="24.1664"
     inkscape:cx="0.53869115"
     inkscape:cy="1.3191682"
     inkscape:window-x="0"
     inkscape:window-y="0"
     inkscape:window-maximized="0"
     inkscape:current-layer="svg2" /><g
     id="g4"
     transform="matrix(0.02431769,0,0,0.02400346,0.00318562,-8.6412127e-4)"><path
       d="m 246.602,90.021 c 52.135,0 98.441,24.943 127.648,63.545 L 318.603,210 493,210 493,33.134 437.826,89.089 C 391.986,34.648 323.347,0.036 246.602,0.036 122.172,0.036 19.017,91 -0.131,210 l 91.801,0 C 109.428,141 172.059,90.021 246.602,90.021 Z"
       id="path6"
       inkscape:connector-curvature="0" /><path
       d="m 246.602,409.979 c -51.039,0 -96.491,-23.903 -125.781,-61.123 L 179.6,290 0,290 0,469.836 56.964,412.797 c 45.829,53.358 113.78,87.167 189.638,87.167 C 371.034,499.964 474.185,409 493.337,290 l -91.801,0 C 383.774,359 321.14,409.979 246.602,409.979 Z"
       id="path8"
       inkscape:connector-curvature="0" /></g></svg>