<?xml version="1.0" encoding="UTF-8" standalone="no"?>
<svg
   xmlns:dc="http://purl.org/dc/elements/1.1/"
   xmlns:cc="http://creativecommons.org/ns#"
   xmlns:rdf="http://www.w3.org/1999/02/22-rdf-syntax-ns#"
   xmlns:svg="http://www.w3.org/2000/svg"
   xmlns="http://www.w3.org/2000/svg"
   xmlns:sodipodi="http://sodipodi.sourceforge.net/DTD/sodipodi-0.dtd"
   xmlns:inkscape="http://www.inkscape.org/namespaces/inkscape"
   version="1.1"
   x="0px"
   y="0px"
   viewBox="0 0 12 12"
   enable-background="new 0 0 493 500"
   xml:space="preserve"
   id="svg2"
   inkscape:version="0.91 r13725"
   sodipodi:docname="refresh.svg"
   width="12"
   height="12"><metadata
     id="metadata18"><rdf:RDF><cc:Work
         rdf:about=""><dc:format>image/svg+xml</dc:format><dc:type
           rdf:resource="http://purl.org/dc/dcmitype/StillImage" /><dc:title /></cc:Work></rdf:RDF></metadata><defs
     id="defs16" /><sodipodi:namedview
     pagecolor="#ffffff"
     bordercolor="#666666"
     borderopacity="1"
     objecttolerance="10"
     gridtolerance="10"
     guidetolerance="10"
     inkscape:pageopacity="0"
     inkscape:pageshadow="2"
     inkscape:window-width="1440"
     inkscape:window-height="855"
     id="namedview14"
     showgrid="false"
     inkscape:zoom="24.1664"
     inkscape:cx="-5.5027548"
     inkscape:cy="1.3191682"
     inkscape:window-x="0"
     inkscape:window-y="0"
     inkscape:window-maximized="0"
     inkscape:current-layer="svg2" /><path
     inkscape:connector-curvature="0"
     id="path6"
     d="m 5.9999766,2.1599514 c 1.2678028,0 2.3938577,0.5987183 3.1041045,1.5252998 l -1.3532065,1.3546113 4.2409324,0 0,-4.24539598 -1.341704,1.34311358 C 9.5353797,0.83080776 7.8662377,0 5.9999766,0 2.9741264,0 0.46563513,2.1834507 0,5.0398625 l 2.2323883,0 C 2.6642218,3.3836237 4.187263,2.1599514 5.9999766,2.1599514 Z" /><path
     inkscape:connector-curvature="0"
     id="path8"
     d="m 5.9999766,9.8400504 c -1.2411506,0 -2.3464382,-0.5737547 -3.0587034,-1.4671635 l 1.4293695,-1.4127476 -4.36745708,0 0,4.3166867 1.38523288,-1.3691338 c 1.1144554,1.2807768 2.7668668,2.0923098 4.6115581,2.0923098 3.0258988,0 5.5342924,-2.183451 6.0000254,-5.0398627 l -2.2323884,0 C 9.3356828,8.616378 7.8125686,9.8400504 5.9999766,9.8400504 Z" /></svg>