<?xml version="1.0" encoding="UTF-8" standalone="no"?>
<svg
   xmlns:dc="http://purl.org/dc/elements/1.1/"
   xmlns:cc="http://creativecommons.org/ns#"
   xmlns:rdf="http://www.w3.org/1999/02/22-rdf-syntax-ns#"
   xmlns:svg="http://www.w3.org/2000/svg"
   xmlns="http://www.w3.org/2000/svg"
   xmlns:sodipodi="http://sodipodi.sourceforge.net/DTD/sodipodi-0.dtd"
   xmlns:inkscape="http://www.inkscape.org/namespaces/inkscape"
   version="1.1"
   id="Layer_1"
   x="0px"
   y="0px"
   width="22"
   height="21"
   viewBox="0 0 22 21"
   enable-background="new 0 0 32 32"
   xml:space="preserve"
   inkscape:version="0.48.5 r10040"
   sodipodi:docname="star-full.svg"><metadata
     id="metadata8"><rdf:RDF><cc:Work
         rdf:about=""><dc:format>image/svg+xml</dc:format><dc:type
           rdf:resource="http://purl.org/dc/dcmitype/StillImage" /><dc:title /></cc:Work></rdf:RDF></metadata><defs
     id="defs6" /><sodipodi:namedview
     pagecolor="#ffffff"
     bordercolor="#666666"
     borderopacity="1"
     objecttolerance="10"
     gridtolerance="10"
     guidetolerance="10"
     inkscape:pageopacity="0"
     inkscape:pageshadow="2"
     inkscape:window-width="1440"
     inkscape:window-height="779"
     id="namedview4"
     showgrid="false"
     inkscape:zoom="16"
     inkscape:cx="-7.15625"
     inkscape:cy="8.1315035"
     inkscape:window-x="0"
     inkscape:window-y="0"
     inkscape:window-maximized="1"
     inkscape:current-layer="Layer_1" /><path
     inkscape:connector-curvature="0"
     id="path3784"
     d="m 5.4772736,16.437058 c 0.6062054,-1.845408 1.10219,-3.478641 1.10219,-3.629405 0,-0.150762 -1.3211572,-1.232179 -2.9359068,-2.403145 L 0.70764989,8.2754794 4.4655851,8.1614503 8.2235187,8.0474211 9.2583173,4.6904059 c 0.56914,-1.8463581 1.0869967,-3.4102464 1.1507907,-3.4753067 0.06379,-0.065062 0.603372,1.4712508 1.199058,3.4140283 l 1.083066,3.5323213 3.802569,0 3.80257,0 -3.000975,2.1778552 c -1.650533,1.19782 -3.026759,2.251661 -3.058274,2.341868 -0.03152,0.0902 0.445316,1.694099 1.059631,3.564199 0.614314,1.870105 1.085422,3.432333 1.046899,3.471616 -0.03855,0.03932 -1.270078,-0.830016 -2.736797,-1.931778 -1.466718,-1.101761 -2.796114,-2.084125 -2.954216,-2.183028 -0.187589,-0.117351 -1.2834907,0.57927 -3.1544698,2.005172 -1.5768576,1.201749 -2.9246298,2.184997 -2.9950498,2.184997 -0.070415,0 0.3679518,-1.509882 0.9741542,-3.355293 z"
     style="fill:#ffd700;fill-opacity:1;stroke:#444444;stroke-width:1.41529977;stroke-linecap:round;stroke-linejoin:round;stroke-miterlimit:4;stroke-opacity:1;stroke-dasharray:none" /></svg>