<?xml version="1.0" encoding="UTF-8" standalone="no"?>
<svg
   xmlns:dc="http://purl.org/dc/elements/1.1/"
   xmlns:cc="http://creativecommons.org/ns#"
   xmlns:rdf="http://www.w3.org/1999/02/22-rdf-syntax-ns#"
   xmlns:svg="http://www.w3.org/2000/svg"
   xmlns="http://www.w3.org/2000/svg"
   xmlns:sodipodi="http://sodipodi.sourceforge.net/DTD/sodipodi-0.dtd"
   xmlns:inkscape="http://www.inkscape.org/namespaces/inkscape"
   version="1.1"
   id="Layer_1"
   x="0px"
   y="0px"
   width="14"
   height="14"
   viewBox="0 0 14 14"
   enable-background="new 0 0 32 32"
   xml:space="preserve"
   inkscape:version="0.48.5 r10040"
   sodipodi:docname="star-empty-small.svg"><metadata
     id="metadata8"><rdf:RDF><cc:Work
         rdf:about=""><dc:format>image/svg+xml</dc:format><dc:type
           rdf:resource="http://purl.org/dc/dcmitype/StillImage" /></cc:Work></rdf:RDF></metadata><defs
     id="defs6" /><sodipodi:namedview
     pagecolor="#ffffff"
     bordercolor="#666666"
     borderopacity="1"
     objecttolerance="10"
     gridtolerance="10"
     guidetolerance="10"
     inkscape:pageopacity="0"
     inkscape:pageshadow="2"
     inkscape:window-width="1440"
     inkscape:window-height="779"
     id="namedview4"
     showgrid="false"
     inkscape:zoom="8"
     inkscape:cx="5.3137085"
     inkscape:cy="8.6840628"
     inkscape:window-x="0"
     inkscape:window-y="0"
     inkscape:window-maximized="1"
     inkscape:current-layer="Layer_1" /><path
     inkscape:connector-curvature="0"
     id="path3784"
     d="M 4.1344477,10.568162 C 4.48016,9.4585654 4.7630146,8.476543 4.7630146,8.3858927 c 0,-0.09065 -0.7534415,-0.7408784 -1.6743155,-1.444951 L 1.4143836,5.6608098 3.5574928,5.5922478 5.7006012,5.523685 6.2907355,3.5051962 c 0.3245743,-1.1101689 0.619902,-2.0504958 0.6562834,-2.0896149 0.036377,-0.03912 0.3440966,0.8846263 0.6838098,2.0527698 l 0.6176606,2.1238961 2.1685637,0 2.168563,0 -1.711422,1.3094897 c -0.9412814,0.7202192 -1.7261281,1.353867 -1.7441007,1.4081063 -0.017974,0.054238 0.2539586,1.0186192 0.6042956,2.1430628 0.3503371,1.124448 0.6190051,2.063776 0.5970351,2.087396 -0.02199,0.02364 -0.7243114,-0.499068 -1.560765,-1.16153 -0.8364532,-0.662461 -1.5945935,-1.253132 -1.6847572,-1.3126 -0.10698,-0.07056 -0.7319606,0.348301 -1.7989595,1.20566 -0.8992646,0.722582 -1.6678843,1.313784 -1.7080441,1.313784 -0.040157,0 0.2098389,-0.907854 0.5555495,-2.017454 z"
     style="fill:#ffffff;fill-opacity:1;stroke:#000000;stroke-width:0.82876712;stroke-linecap:round;stroke-linejoin:round;stroke-miterlimit:4;stroke-opacity:1;stroke-dasharray:none" /></svg>