<?xml version="1.0" encoding="UTF-8" standalone="no"?>
<svg
   xmlns:dc="http://purl.org/dc/elements/1.1/"
   xmlns:cc="http://creativecommons.org/ns#"
   xmlns:rdf="http://www.w3.org/1999/02/22-rdf-syntax-ns#"
   xmlns:svg="http://www.w3.org/2000/svg"
   xmlns="http://www.w3.org/2000/svg"
   xmlns:sodipodi="http://sodipodi.sourceforge.net/DTD/sodipodi-0.dtd"
   xmlns:inkscape="http://www.inkscape.org/namespaces/inkscape"
   version="1.1"
   id="Layer_1"
   x="0px"
   y="0px"
   width="14"
   height="14"
   viewBox="0 0 14 14"
   enable-background="new 0 0 32 32"
   xml:space="preserve"
   inkscape:version="0.48.5 r10040"
   sodipodi:docname="star-half-small.svg"><metadata
     id="metadata8"><rdf:RDF><cc:Work
         rdf:about=""><dc:format>image/svg+xml</dc:format><dc:type
           rdf:resource="http://purl.org/dc/dcmitype/StillImage" /><dc:title /></cc:Work></rdf:RDF></metadata><defs
     id="defs6" /><sodipodi:namedview
     pagecolor="#ffffff"
     bordercolor="#666666"
     borderopacity="1"
     objecttolerance="10"
     gridtolerance="10"
     guidetolerance="10"
     inkscape:pageopacity="0"
     inkscape:pageshadow="2"
     inkscape:window-width="1440"
     inkscape:window-height="779"
     id="namedview4"
     showgrid="false"
     inkscape:zoom="32"
     inkscape:cx="-1.4696242"
     inkscape:cy="8.1315035"
     inkscape:window-x="0"
     inkscape:window-y="0"
     inkscape:window-maximized="1"
     inkscape:current-layer="Layer_1" /><g
     id="g2983"
     transform="matrix(0.85714289,0,0,0.85714289,1,0.99999914)"><path
       style="fill:#ffffff;fill-opacity:1;stroke:#000000;stroke-width:0.96689492;stroke-linecap:round;stroke-linejoin:round;stroke-miterlimit:4;stroke-opacity:1;stroke-dasharray:none"
       d="M 3.6568555,11.162858 C 4.0601865,9.8683274 4.3901835,8.7226348 4.3901835,8.6168761 4.3901835,8.511118 3.5111685,7.752518 2.4368155,6.9311 L 0.48344746,5.437613 2.9837415,5.357623 l 2.500293,-0.07999 0.68849,-2.354904 c 0.37867,-1.295197 0.723219,-2.39224496 0.765664,-2.43788396 0.04244,-0.04564 0.401446,1.03206396 0.797778,2.39489796 l 0.720604,2.477879 2.5299905,0 2.529991,0 -1.99666,1.527738 c -1.098161,0.840256 -2.0138155,1.5795116 -2.0347835,1.6427907 -0.02097,0.063278 0.296285,1.1883896 0.7050115,2.5002413 0.408726,1.311855 0.722172,2.407738 0.696541,2.435295 -0.02565,0.02758 -0.84503,-0.582246 -1.8208925,-1.355118 -0.975862,-0.772872 -1.860359,-1.461988 -1.96555,-1.531367 -0.12481,-0.08232 -0.853954,0.406351 -2.098786,1.406603 -1.049142,0.843012 -1.945865,1.532748 -1.992718,1.532748 -0.04685,0 0.244812,-1.059163 0.648141,-2.353696 z"
       id="path3784"
       inkscape:connector-curvature="0" /><path
       inkscape:connector-curvature="0"
       id="path3877"
       d="M 3.8405345,12.154187 C 3.8800042,12.051173 4.1265819,11.210227 4.388485,10.285412 4.7485354,9.0140238 4.8270566,8.5336436 4.710439,8.3157415 4.6256106,8.1572386 3.9432594,7.5316791 3.194103,6.9256096 L 1.832,5.8236653 2.4043703,5.7199241 C 2.7191743,5.6628664 3.5498592,5.6112647 4.250337,5.6052536 4.9508148,5.5992423 5.6250718,5.5305196 5.7486855,5.4525359 5.8722992,5.3745525 6.2212997,4.4821946 6.524242,3.4695187 l 0.5508045,-1.8412288 0.011077,4.2976546 c 0.010895,4.2289805 0.00611,4.2992385 -0.301272,4.3967905 -0.1717917,0.05454 -0.8850105,0.531046 -1.5849308,1.058939 -1.3208913,0.996242 -1.4796853,1.086479 -1.3593853,0.772513 l 4e-7,0 z"
       style="fill:#ffd700;fill-opacity:1;stroke:none" /></g></svg>