<?xml version="1.0" encoding="UTF-8" standalone="no"?>
<svg
   xmlns:dc="http://purl.org/dc/elements/1.1/"
   xmlns:cc="http://creativecommons.org/ns#"
   xmlns:rdf="http://www.w3.org/1999/02/22-rdf-syntax-ns#"
   xmlns:svg="http://www.w3.org/2000/svg"
   xmlns="http://www.w3.org/2000/svg"
   xmlns:sodipodi="http://sodipodi.sourceforge.net/DTD/sodipodi-0.dtd"
   xmlns:inkscape="http://www.inkscape.org/namespaces/inkscape"
   version="1.1"
   id="Calque_1"
   x="0px"
   y="0px"
   width="40"
   height="40"
   viewBox="20.47565 -40.9525 163.8052 221.1435"
   enable-background="new 0 0 409.513 409.525"
   xml:space="preserve"
   inkscape:version="0.91 r13725"
   sodipodi:docname="target_overlay.svg"><metadata
     id="metadata17"><rdf:RDF><cc:Work
         rdf:about=""><dc:format>image/svg+xml</dc:format><dc:type
           rdf:resource="http://purl.org/dc/dcmitype/StillImage" /><dc:title></dc:title></cc:Work></rdf:RDF></metadata><defs
     id="defs15" /><sodipodi:namedview
     pagecolor="#ffffff"
     bordercolor="#666666"
     borderopacity="1"
     objecttolerance="10"
     gridtolerance="10"
     guidetolerance="10"
     inkscape:pageopacity="0"
     inkscape:pageshadow="2"
     inkscape:window-width="1440"
     inkscape:window-height="803"
     id="namedview13"
     showgrid="false"
     inkscape:zoom="4.72"
     inkscape:cx="24.373762"
     inkscape:cy="34.038982"
     inkscape:window-x="0"
     inkscape:window-y="0"
     inkscape:window-maximized="1"
     inkscape:current-layer="Calque_1" /><path
     inkscape:connector-curvature="0"
     id="path7"
     d="m 190.73755,61.557069 c -3.84599,-42.51085 -37.78869,-76.458952 -80.30035,-80.304822 l 0,-22.20475 -16.117864,0 0,22.20475 c -42.512207,3.84587 -76.454364,37.793972 -80.307378,80.304822 l -22.2054521,0 0,16.11734 22.2054521,0 c 3.853014,42.517341 37.795171,76.451931 80.307378,80.304831 l 0,22.21176 16.117864,0 0,-22.21176 c 42.5122,-3.8529 76.45436,-37.78749 80.30035,-80.304831 l 22.21248,0 0,-16.11734 -22.21248,0 z m -16.19291,16.11734 C 170.81529,111.29365 144.0575,138.05706 110.4372,141.78683 l 0,-29.05354 -16.117864,0 0,29.05354 C 60.69903,138.05706 33.934764,111.29365 30.204874,77.674409 l 29.054474,0 0,-16.11734 -29.054474,0 C 33.934224,27.937839 60.69903,1.1744173 94.319336,-2.5553527 l 0,29.0535417 16.117864,0 0,-29.0535417 c 33.6203,3.72923 60.37809,30.4931917 64.10744,64.1124217 l -29.04745,0 0,16.11734 29.04745,0 z"
     style="fill:#a40000;fill-opacity:1" /></svg>