<?xml version="1.0" encoding="UTF-8" standalone="no"?>
<svg
   xmlns:dc="http://purl.org/dc/elements/1.1/"
   xmlns:cc="http://creativecommons.org/ns#"
   xmlns:rdf="http://www.w3.org/1999/02/22-rdf-syntax-ns#"
   xmlns:svg="http://www.w3.org/2000/svg"
   xmlns="http://www.w3.org/2000/svg"
   xmlns:sodipodi="http://sodipodi.sourceforge.net/DTD/sodipodi-0.dtd"
   xmlns:inkscape="http://www.inkscape.org/namespaces/inkscape"
   version="1.1"
   id="Layer_1"
   x="0px"
   y="0px"
   width="50"
   height="50"
   viewBox="0 0 50 50"
   enable-background="new 0 0 36 30"
   xml:space="preserve"
   inkscape:version="0.48.2 r9819"
   sodipodi:docname="button-map-selected.svg"><metadata
   id="metadata35"><rdf:RDF><cc:Work
       rdf:about=""><dc:format>image/svg+xml</dc:format><dc:type
         rdf:resource="http://purl.org/dc/dcmitype/StillImage" /><dc:title></dc:title></cc:Work></rdf:RDF></metadata><defs
   id="defs33" /><sodipodi:namedview
   pagecolor="#ffffff"
   bordercolor="#666666"
   borderopacity="1"
   objecttolerance="10"
   gridtolerance="10"
   guidetolerance="10"
   inkscape:pageopacity="0"
   inkscape:pageshadow="2"
   inkscape:window-width="1280"
   inkscape:window-height="725"
   id="namedview31"
   showgrid="false"
   inkscape:zoom="7.8666667"
   inkscape:cx="20.923729"
   inkscape:cy="25.169492"
   inkscape:window-x="-1"
   inkscape:window-y="0"
   inkscape:window-maximized="0"
   inkscape:current-layer="Layer_1" />








<polygon
   display="none"
   points="13.839,15.304 13.839,13.404 12.704,13.226 12.704,15.152 "
   id="polygon19"
   style="display:none"
   transform="translate(0,20)" />
<polygon
   display="none"
   points="23.555,18.861 23.177,19.02 22.408,17.948 22.408,20.814 23.178,20.977 23.555,20.818 "
   id="polygon21"
   style="display:none"
   transform="translate(0,20)" />
<polygon
   display="none"
   points="12.704,13.226 11.7,13.067 11.111,13.194 4.7,15.914 5.843,17.629 11.584,15.003 12.704,15.152 "
   id="polygon23"
   style="display:none"
   transform="translate(0,20)" />
<polygon
   points="22.408,17.381 23.177,18.452 23.555,18.294 23.555,18.094 22.408,15.322 "
   id="polygon3"
   style="fill:#00bbe0;fill-opacity:1"
   transform="matrix(1.6424465,0,0,1.6424465,-4.7767343,1.006863)" /><polygon
   points="23.555,20.489 23.555,20.251 23.178,20.409 "
   id="polygon5"
   style="fill:#00bbe0;fill-opacity:1"
   transform="matrix(1.6424465,0,0,1.6424465,-4.7767343,1.006863)" /><polygon
   style="fill:#00bbe0;fill-opacity:1"
   points="5.843,17.062 4.7,15.347 11.111,12.627 11.7,12.5 12.704,12.659 12.704,6.308 4.126,7.841 4.126,25.465 12.704,26.976 12.704,14.585 11.584,14.436 "
   id="polygon7"
   transform="matrix(1.6424465,0,0,1.6424465,-4.7767343,1.006863)" /><path
   style="fill:#00bbe0;fill-opacity:1"
   d="m 42.212018,12.402157 c -0.131396,0.722676 -0.346557,1.415789 -0.650409,2.057985 l -6.699539,16.19945 8.43889,-3.509908 0.936194,2.816796 -10.326061,4.301567 v 0.387617 l 0.0066,0.0033 h -0.0066 v 8.172814 L 47.999999,45.3135 V 11.367416 l -5.787981,1.034741 z"
   id="path9"
   inkscape:connector-curvature="0" /><polygon
   style="fill:#00bbe0;fill-opacity:1"
   points="22.368,20.239 18.414,15.347 13.839,14.737 13.839,26.976 22.408,25.465 22.408,20.247 "
   id="polygon11"
   transform="matrix(1.6424465,0,0,1.6424465,-4.7767343,1.006863)" /><path
   style="fill:#00bbe0;fill-opacity:1"
   d="m 28.284071,24.337816 3.743136,5.21641 V 26.172428 L 26.906059,13.785097 h 0.01478 c -0.101832,-0.274289 -0.16096,-0.566644 -0.23487,-0.854072 l -8.732888,-1.561967 v 10.723533 l 9.348805,1.471632 0.982183,0.773593 z"
   id="path13"
   inkscape:connector-curvature="0" /><path
   style="fill:#00bbe0;fill-opacity:1"
   d="m 34.382475,4.6268151 c -3.3703,0 -6.100046,2.7083943 -6.100046,6.0474879 0,0.752241 0.139608,1.474917 0.394187,2.138465 h -0.01478 l 0.218445,0.509159 3.146928,7.381154 1.882244,4.416539 0.464812,1.095512 5.495626,-12.899775 c 0.08376,-0.167529 0.121541,-0.353126 0.188881,-0.527225 0.251295,-0.661906 0.423751,-1.364873 0.423751,-2.112186 0.0016,-3.3407366 -2.728103,-6.0491309 -6.100046,-6.0491309 z m -2.711679,6.0474879 c 0,-1.4847715 1.212125,-2.6853999 2.708394,-2.6853999 1.497911,0 2.711679,1.2006284 2.711679,2.6853999 0,1.481487 -1.213768,2.6854 -2.711679,2.6854 -1.491341,0 -2.708394,-1.203913 -2.708394,-2.6854 z"
   id="path17"
   inkscape:connector-curvature="0" /><polygon
   style="fill:#00bbe0;fill-opacity:1"
   points="23.559,20.489 23.555,20.489 23.555,20.489 "
   id="polygon25"
   transform="matrix(1.6424465,0,0,1.6424465,-4.7767343,1.006863)" />
<polygon
   display="none"
   points="23.836,19.342 23.626,18.833 23.555,18.861 23.555,20.818 29.842,18.199 29.271,16.484 24.134,18.621 "
   id="polygon27"
   style="display:none"
   transform="translate(0,20)" />
<polygon
   display="none"
   points="22.408,20.814 22.408,17.948 20.129,14.772 19.531,14.3 13.839,13.404 13.839,15.304 18.414,15.914 22.368,20.807 "
   id="polygon29"
   style="display:none"
   transform="translate(0,20)" />
</svg>