<?xml version="1.0" encoding="UTF-8" standalone="no"?>
<!-- Created with Inkscape (http://www.inkscape.org/) -->

<svg
   xmlns:dc="http://purl.org/dc/elements/1.1/"
   xmlns:cc="http://creativecommons.org/ns#"
   xmlns:rdf="http://www.w3.org/1999/02/22-rdf-syntax-ns#"
   xmlns:svg="http://www.w3.org/2000/svg"
   xmlns="http://www.w3.org/2000/svg"
   xmlns:sodipodi="http://sodipodi.sourceforge.net/DTD/sodipodi-0.dtd"
   xmlns:inkscape="http://www.inkscape.org/namespaces/inkscape"
   width="50"
   height="50"
   id="svg2"
   version="1.1"
   inkscape:version="0.48.2 r9819"
   sodipodi:docname="button-search.svg">
  <defs
     id="defs4" />
  <sodipodi:namedview
     id="base"
     pagecolor="#ffffff"
     bordercolor="#666666"
     borderopacity="1.0"
     inkscape:pageopacity="0.0"
     inkscape:pageshadow="2"
     inkscape:zoom="3.959798"
     inkscape:cx="17.153461"
     inkscape:cy="15.815811"
     inkscape:document-units="px"
     inkscape:current-layer="layer1"
     showgrid="false"
     inkscape:window-width="1280"
     inkscape:window-height="709"
     inkscape:window-x="0"
     inkscape:window-y="0"
     inkscape:window-maximized="1" />
  <metadata
     id="metadata7">
    <rdf:RDF>
      <cc:Work
         rdf:about="">
        <dc:format>image/svg+xml</dc:format>
        <dc:type
           rdf:resource="http://purl.org/dc/dcmitype/StillImage" />
        <dc:title></dc:title>
      </cc:Work>
    </rdf:RDF>
  </metadata>
  <g
     inkscape:label="Layer 1"
     inkscape:groupmode="layer"
     id="layer1"
     transform="translate(0,-1002.3622)">
    <path
       style="fill:#00bbe0;fill-opacity:1;stroke:none"
       d="m 42.328963,1049.9379 c -1.002753,-0.4712 -13.14235,-12.7169 -13.376995,-13.4942 -0.09852,-0.3263 -0.256179,-0.5572 -0.350336,-0.5132 -0.09416,0.044 -0.805608,0.4131 -1.580999,0.8203 -2.480017,1.3024 -4.087794,1.7371 -6.980069,1.887 -5.251021,0.2723 -9.351317,-1.2848 -12.9811545,-4.9297 -3.4276211,-3.4418 -5.0437678,-7.276 -5.0592348,-12.0026 -0.00999,-3.0396 0.4065043,-4.8483 1.7738251,-7.7041 2.1234055,-4.4351 6.2489852,-7.7954 11.0582662,-9.0074 10.822356,-2.727 21.363682,5.4555 21.439285,16.6418 0.02005,2.968 -1.231685,7.1191 -2.818917,9.3481 l -0.523172,0.7348 0.83905,0.1764 c 0.648338,0.1362 2.31588,1.6455 7.336496,6.6405 4.205771,4.1842 6.591051,6.7477 6.762836,7.2682 0.878621,2.6624 -2.810667,5.4159 -5.538881,4.1341 l 0,0 z M 21.867245,1035.089 c 3.823463,-0.6199 7.781161,-3.6859 9.612117,-7.4463 4.468042,-9.1768 -2.220225,-19.7828 -12.494974,-19.8141 -2.099756,-0.01 -3.926885,0.4403 -6.028333,1.4736 -2.321934,1.1417 -3.9008356,2.4905 -5.2091541,4.4497 -3.7670098,5.6413 -3.1128158,12.85 1.5960765,17.5876 3.3340376,3.3544 7.4185016,4.5772 12.5242676,3.7495 z"
       id="path3872"
       inkscape:connector-curvature="0" />
  </g>
</svg>
